<svg width="184" height="57" viewBox="0 0 184 57" fill="none" xmlns="http://www.w3.org/2000/svg">
<path d="M52.36 43H58.088V23.928H64.552V19.16H45.928V23.928H52.36V43ZM69.8808 43.448C71.8968 43.448 73.5928 42.52 75.0968 41.176H75.2568L75.6408 43H80.2808V32.664C80.2808 26.968 77.6248 24.344 72.9208 24.344C70.0728 24.344 67.4808 25.304 65.0807 26.744L67.0648 30.488C68.8888 29.464 70.3928 28.888 71.8328 28.888C73.6888 28.888 74.4568 29.752 74.5848 31.224C67.4808 31.992 64.4728 34.072 64.4728 37.912C64.4728 40.952 66.5208 43.448 69.8808 43.448ZM71.8328 39.032C70.6488 39.032 69.8808 38.52 69.8808 37.464C69.8808 36.184 71.0328 35.128 74.5848 34.68V37.592C73.7528 38.488 72.9848 39.032 71.8328 39.032ZM89.863 43.448C91.143 43.448 92.071 43.224 92.679 42.968L92.007 38.776C91.687 38.84 91.559 38.84 91.367 38.84C90.919 38.84 90.375 38.488 90.375 37.272V17.432H84.679V37.08C84.679 40.888 85.959 43.448 89.863 43.448ZM95.304 43H100.904V38.488L103.016 36.088L106.952 43H113.128L106.344 32.376L112.68 24.792H106.44L101.064 31.64H100.904V17.432H95.304V43ZM118.423 43H124.151V23.928H130.615V19.16H111.991V23.928H118.423V43ZM135.943 43.448C137.959 43.448 139.655 42.52 141.159 41.176H141.319L141.703 43H146.343V32.664C146.343 26.968 143.687 24.344 138.983 24.344C136.135 24.344 133.543 25.304 131.143 26.744L133.127 30.488C134.951 29.464 136.455 28.888 137.895 28.888C139.751 28.888 140.519 29.752 140.647 31.224C133.543 31.992 130.535 34.072 130.535 37.912C130.535 40.952 132.583 43.448 135.943 43.448ZM137.895 39.032C136.711 39.032 135.943 38.52 135.943 37.464C135.943 36.184 137.095 35.128 140.647 34.68V37.592C139.815 38.488 139.047 39.032 137.895 39.032ZM155.926 43.448C157.206 43.448 158.134 43.224 158.742 42.968L158.07 38.776C157.75 38.84 157.622 38.84 157.43 38.84C156.982 38.84 156.438 38.488 156.438 37.272V17.432H150.742V37.08C150.742 40.888 152.022 43.448 155.926 43.448ZM161.367 43H166.967V38.488L169.079 36.088L173.015 43H179.191L172.407 32.376L178.743 24.792H172.503L167.127 31.64H166.967V17.432H161.367V43Z" fill="black"/>
<path d="M4.576 6.968H40.608V17.208H4.576V6.968ZM16.16 19.768H28.96V51H16.16V19.768Z" fill="#005BAC"/>
</svg>
